# xmcd
# Track frame offsets:
# 150
# 13441
# 26420
# 40018
# 51563
# 61878
# 71807
# 86575
# 101552
# 114343
# 127871
# 139839
# 157160
# 171953
# 184846
# 195547
# 207127
# 219164
# 230901
# 240877
# 254230
# 269466
# 285558
# 297262
# 309111
#
# Disc length: 4344 seconds
# Revision: 0
# Processed by: cddbd v1.5.2PL0 Copyright (c) Steve Scherf et al.
# Submitted via: VisiTrax 2.11.2.271 - For more info visit www.synapsa.com
#
DISCID=7410f619
DTITLE=Various Artist - 101 Country Classics [CD2)
DYEAR=2011
DGENRE=
TTITLE0=Tammy Wynette - D-I-V-O-R-C-E
TTITLE1=Willie Nelson - Crazy
TTITLE2=Gene Pitney - The Man Who Shot Liberty Valance
TTITLE3=Glen Campbell and Bobbie Gentry - All I Have To Do Is Dream
TTITLE4=Tennessee Ernie Ford - King Of The Road
TTITLE5=Anne Murray - Snowbird
TTITLE6=B.J. Thomas - Im So Lonesome I Could Cry
TTITLE7=Sue Thompson - Sad Movies (Make Me Cry)
TTITLE8=Johnny Tillotson - It Keeps Right On-A-Hurtin
TTITLE9=Slim Whitman - Ill Take You Home Again, Kathleen
TTITLE10=Patsy Cline - Walkin After Midnight
TTITLE11=Ray Price - For The Good Times
TTITLE12=Jean Shepard - Sing Me An Old Fashioned Song
TTITLE13=Faron Young - Your Cheatin Heart
TTITLE14=George Jones - Take These Chains From My Heart
TTITLE15=Jody Miller - He Walks Like A Man
TTITLE16=Eddy Arnold - Make The World Go Away
TTITLE17=Porter Wagoner and Dolly Parton - The Last Thing On My Mind
TTITLE18=Ned Miller - From A Jack To A King
TTITLE19=Ray Stevens - Misty
TTITLE20=Jessi Colter - Im Not Lisa
TTITLE21=Joe South - Games People Play
TTITLE22=Sammi Smith - Help Me Make It Through The Night
TTITLE23=The Stone Poneys - Different Drum
TTITLE24=Ronnie Milsap - Smoky Mountain Rain
EXTD=
EXTT0=
EXTT1=
EXTT2=
EXTT3=
EXTT4=
EXTT5=
EXTT6=
EXTT7=
EXTT8=
EXTT9=
EXTT10=
EXTT11=
EXTT12=
EXTT13=
EXTT14=
EXTT15=
EXTT16=
EXTT17=
EXTT18=
EXTT19=
EXTT20=
EXTT21=
EXTT22=
EXTT23=
EXTT24=
PLAYORDER=
